<svg width="58" height="21" viewBox="0 0 58 21" fill="none" xmlns="http://www.w3.org/2000/svg">
<path d="M55.1 20.1019C56.2083 20.1019 57.1102 19.2 57.1102 18.0917C57.1102 16.9834 56.2083 16.0815 55.1 16.0815C53.9917 16.0815 53.0898 16.9834 53.0898 18.0917C53.0898 19.2 53.9917 20.1019 55.1 20.1019Z" fill="#231815"/>
<path d="M11.4297 0.489014H16.3519L25.3597 12.0502H25.414V0.489014H30.3253V19.4064H25.414L16.4062 7.82343H16.3519V19.4064H11.4297V0.489014Z" fill="#231815"/>
<path d="M5.42205 19.4064H0V0.489014H5.42205V19.4064Z" fill="#231815"/>
<path d="M49.0249 6.84546C48.0252 5.48723 46.3954 4.75922 44.7112 4.75922C41.7013 4.75922 39.6694 7.06278 39.6694 10.0074C39.6694 12.952 41.7231 15.1469 44.7872 15.1469C46.3954 15.1469 48.0035 14.3755 49.0249 13.1368V19.0369C47.395 19.5367 46.2107 19.917 44.6894 19.917C42.0599 19.917 39.5499 18.9174 37.594 17.1354C35.5078 15.2556 34.5625 12.7891 34.5625 9.98568C34.5625 7.39962 35.5404 4.92221 37.3441 3.06416C39.2022 1.16264 41.8861 0 44.5482 0C46.1346 0 47.5798 0.347706 49.0358 0.956191V6.85633L49.0249 6.84546Z" fill="#231815"/>
</svg>
